<svg width="435" height="146" viewBox="0 0 435 146" fill="none" xmlns="http://www.w3.org/2000/svg">
<mask id="path-1-outside-1" maskUnits="userSpaceOnUse" x="9" y="2" width="119" height="144" fill="black">
<rect fill="white" x="9" y="2" width="119" height="144"/>
<path fill-rule="evenodd" clip-rule="evenodd" d="M115.921 25.871L116 25.9301V121.438C106.09 128.817 93.8051 133.184 80.5 133.184C47.6391 133.184 21 106.545 21 73.684C21 40.8231 47.6391 14.184 80.5 14.184C84.4292 14.184 88.2694 14.5649 91.9858 15.2917C92.9448 15.0531 94.2991 14.8146 96.0485 14.576C98.1605 14.192 100.321 14 102.529 14C104.641 14 106.513 14.144 108.145 14.432C109.873 14.72 111.312 15.296 112.465 16.16C113.617 17.024 114.481 18.224 115.057 19.76C115.632 21.2 115.921 23.12 115.921 25.52V25.871Z"/>
</mask>
<path fill-rule="evenodd" clip-rule="evenodd" d="M115.921 25.871L116 25.9301V121.438C106.09 128.817 93.8051 133.184 80.5 133.184C47.6391 133.184 21 106.545 21 73.684C21 40.8231 47.6391 14.184 80.5 14.184C84.4292 14.184 88.2694 14.5649 91.9858 15.2917C92.9448 15.0531 94.2991 14.8146 96.0485 14.576C98.1605 14.192 100.321 14 102.529 14C104.641 14 106.513 14.144 108.145 14.432C109.873 14.72 111.312 15.296 112.465 16.16C113.617 17.024 114.481 18.224 115.057 19.76C115.632 21.2 115.921 23.12 115.921 25.52V25.871Z" fill="white"/>
<path d="M116 25.9301H128V19.8979L123.159 16.2993L116 25.9301ZM115.921 25.871H103.921V31.9032L108.762 35.5018L115.921 25.871ZM116 121.438L123.167 131.063L128 127.464V121.438H116ZM91.9858 15.2917L89.6826 27.0686L92.2972 27.5799L94.8826 26.9368L91.9858 15.2917ZM96.0485 14.576L97.6698 26.466L97.9334 26.43L98.1951 26.3824L96.0485 14.576ZM108.145 14.432L106.059 26.2494L106.115 26.2593L106.172 26.2687L108.145 14.432ZM115.057 19.76L103.821 23.9735L103.866 24.0956L103.915 24.2166L115.057 19.76ZM123.159 16.2993L123.079 16.2402L108.762 35.5018L108.841 35.5609L123.159 16.2993ZM128 121.438V25.9301H104V121.438H128ZM80.5 145.184C96.4744 145.184 111.257 139.931 123.167 131.063L108.833 111.813C100.924 117.703 91.1357 121.184 80.5 121.184V145.184ZM9 73.684C9 113.172 41.0116 145.184 80.5 145.184V121.184C54.2665 121.184 33 99.9175 33 73.684H9ZM80.5 2.184C41.0116 2.184 9 34.1956 9 73.684H33C33 47.4505 54.2665 26.184 80.5 26.184V2.184ZM94.289 3.51479C89.8179 2.64037 85.2064 2.184 80.5 2.184V26.184C83.652 26.184 86.721 26.4894 89.6826 27.0686L94.289 3.51479ZM94.8826 26.9368C95.2169 26.8536 96.0725 26.6838 97.6698 26.466L94.4272 2.68604C92.5256 2.94534 90.6727 3.25261 89.089 3.64658L94.8826 26.9368ZM98.1951 26.3824C99.5789 26.1308 101.02 26 102.529 26V2C99.6212 2 96.7421 2.25316 93.9019 2.76956L98.1951 26.3824ZM102.529 26C104.121 26 105.273 26.1106 106.059 26.2494L110.23 2.61459C107.752 2.17739 105.16 2 102.529 2V26ZM106.172 26.2687C106.409 26.3083 105.949 26.2734 105.265 25.76L119.665 6.56C116.676 4.31861 113.336 3.13171 110.117 2.59527L106.172 26.2687ZM105.265 25.76C104.842 25.4432 104.497 25.0792 104.238 24.7197C103.986 24.3691 103.865 24.0931 103.821 23.9735L126.292 15.5465C125.027 12.1731 122.893 8.98163 119.665 6.56L105.265 25.76ZM103.915 24.2166C103.785 23.8918 103.798 23.7985 103.837 24.0601C103.875 24.3125 103.921 24.7828 103.921 25.52H127.921C127.921 22.3395 127.565 18.7192 126.198 15.3033L103.915 24.2166ZM103.921 25.52V25.871H127.921V25.52H103.921Z" fill="white" mask="url(#path-1-outside-1)"/>
<path fill-rule="evenodd" clip-rule="evenodd" d="M116 26.7461C115.974 26.7264 115.947 26.7067 115.921 26.687V94.592C115.921 99.104 113.809 102.704 109.585 105.392C106.801 107.216 103.201 108.8 98.7845 110.144C94.3685 111.584 89.2805 112.304 83.5205 112.304C77.2805 112.304 71.6645 111.44 66.6725 109.712C61.7765 107.984 57.6005 105.488 54.1445 102.224C50.7845 98.96 48.1925 95.072 46.3685 90.56C44.6405 85.952 43.7765 80.768 43.7765 75.008C43.7765 68.672 44.7365 63.2 46.6565 58.592C48.5765 53.888 51.2165 50 54.5765 46.928C58.0325 43.856 62.0165 41.6 66.5285 40.16C71.1365 38.624 76.0805 37.856 81.3605 37.856C83.2805 37.856 85.1525 38.048 86.9765 38.432C88.8005 38.72 90.2885 39.104 91.4405 39.584V16.256C91.6053 16.2066 91.7871 16.1571 91.9858 16.1077C88.2694 15.3809 84.4292 15 80.5 15C47.6391 15 21 41.6391 21 74.5C21 107.361 47.6391 134 80.5 134C93.8051 134 106.09 129.633 116 122.254V26.7461Z" fill="#42B11B"/>
<path d="M43.7765 75.008C43.7765 68.672 44.7365 63.2 46.6565 58.592C48.5765 53.888 51.2165 50 54.5765 46.928C58.0325 43.856 62.0165 41.6 66.5285 40.16C71.1365 38.624 76.0805 37.856 81.3605 37.856C83.2805 37.856 85.1525 38.048 86.9765 38.432C88.8005 38.72 90.2885 39.104 91.4405 39.584V16.256C92.4005 15.968 93.9365 15.68 96.0485 15.392C98.1605 15.008 100.321 14.816 102.529 14.816C104.641 14.816 106.513 14.96 108.145 15.248C109.873 15.536 111.313 16.112 112.465 16.976C113.617 17.84 114.481 19.04 115.057 20.576C115.633 22.016 115.921 23.936 115.921 26.336V94.592C115.921 99.104 113.809 102.704 109.585 105.392C106.801 107.216 103.201 108.8 98.7845 110.144C94.3685 111.584 89.2805 112.304 83.5205 112.304C77.2805 112.304 71.6645 111.44 66.6725 109.712C61.7765 107.984 57.6005 105.488 54.1445 102.224C50.7845 98.96 48.1925 95.072 46.3685 90.56C44.6405 85.952 43.7765 80.768 43.7765 75.008ZM84.6725 57.008C79.4885 57.008 75.5045 58.496 72.7205 61.472C69.9365 64.448 68.5445 68.96 68.5445 75.008C68.5445 80.96 69.8405 85.472 72.4325 88.544C75.0245 91.52 78.7685 93.008 83.6645 93.008C85.3925 93.008 86.9285 92.768 88.2725 92.288C89.7125 91.712 90.8165 91.088 91.5845 90.416V58.736C89.6645 57.584 87.3605 57.008 84.6725 57.008Z" fill="#174B05"/>
<path d="M137.668 66.843C135.994 64.7367 134.752 62.2793 133.942 59.4709C133.132 56.6624 132.727 53.8 132.727 50.8835C132.727 47.9671 133.132 45.1046 133.942 42.2962C134.752 39.4878 135.994 37.0304 137.668 34.924C141.341 30.3333 146.445 28.038 152.98 28.038C156.976 28.038 160.703 28.8751 164.159 30.5494C165.078 30.9814 165.537 31.6025 165.537 32.4127C165.537 33.2228 165.348 33.8709 164.97 34.357C164.646 34.789 164.268 35.0051 163.835 35.0051C163.403 35.0051 162.728 34.843 161.81 34.519C160.892 34.1409 159.596 33.7899 157.922 33.4658C156.247 33.0878 154.6 32.8987 152.98 32.8987C151.359 32.8987 149.82 33.1688 148.362 33.7089C146.958 34.1949 145.689 34.87 144.554 35.7342C143.474 36.5983 142.556 37.6245 141.8 38.8127C141.044 39.9468 140.423 41.189 139.937 42.5392C139.019 45.1857 138.559 47.9941 138.559 50.9646C138.559 55.6093 139.64 59.6329 141.8 63.0354C144.284 66.9241 148.146 68.8684 153.385 68.8684C155.707 68.8684 158.246 68.3553 161 67.3291C161.918 66.9511 162.647 66.627 163.187 66.357C163.781 65.9789 164.322 65.7899 164.808 65.7899C165.348 65.7899 165.78 66.0059 166.104 66.438C166.482 66.816 166.671 67.3021 166.671 67.8962C166.671 68.4363 166.455 68.9764 166.023 69.5165C165.591 70.0025 164.997 70.4616 164.241 70.8937C163.538 71.3257 162.701 71.7308 161.729 72.1089C160.811 72.4329 159.839 72.73 158.813 73C156.868 73.4321 154.951 73.6481 153.061 73.6481C146.418 73.6481 141.287 71.3797 137.668 66.843ZM191.774 54.1241L195.339 54.2051V51.5316C195.339 47.319 192.962 45.2127 188.209 45.2127C185.995 45.2127 184.402 45.4017 183.43 45.7797C182.296 46.2118 181.215 46.7249 180.189 47.319C179.163 47.8591 178.407 48.1291 177.921 48.1291C177.489 48.1291 177.084 47.9671 176.706 47.643C176.382 47.265 176.22 46.8329 176.22 46.3468C176.22 45.8608 176.436 45.4287 176.868 45.0506C179.46 42.5662 183.295 41.3241 188.372 41.3241C194.042 41.3241 197.688 43.2684 199.308 47.157C199.902 48.5072 200.199 50.1004 200.199 51.9367L200.118 70.8127C200.118 71.5688 199.875 72.1359 199.389 72.5139C198.903 72.838 198.336 73 197.688 73C197.094 73 196.554 72.838 196.068 72.5139C195.582 72.1359 195.339 71.5958 195.339 70.8937V67.9772C194.042 70.7316 191.693 72.5139 188.291 73.3241C187.21 73.5401 186.022 73.6481 184.726 73.6481C183.484 73.6481 182.215 73.4321 180.918 73C179.622 72.6219 178.488 72.0278 177.516 71.2177C175.464 69.5975 174.437 67.3291 174.437 64.4127C174.437 57.5536 180.216 54.1241 191.774 54.1241ZM195.339 57.8506C194.42 57.9046 193.367 57.9316 192.179 57.9316C191.045 57.9316 189.884 57.9586 188.696 58.0127C187.561 58.0667 186.427 58.2017 185.293 58.4177C184.213 58.6338 183.241 58.9578 182.377 59.3899C180.432 60.47 179.46 62.0903 179.46 64.2506C179.46 65.9789 180.135 67.3831 181.485 68.4633C182.566 69.2734 184.132 69.7325 186.184 69.8405C188.669 69.8405 190.775 69.0574 192.503 67.4911C194.285 65.9249 195.231 63.6295 195.339 60.6051V57.8506ZM212.347 42.0532C213.913 42.0532 214.696 42.8363 214.696 44.4025V47.157C216.046 43.2684 218.882 41.3241 223.202 41.3241C224.012 41.3241 224.634 41.5671 225.066 42.0532C225.498 42.4852 225.714 42.9713 225.714 43.5114C225.714 44.0515 225.498 44.5376 225.066 44.9696C224.688 45.4017 223.931 45.6177 222.797 45.6177C221.663 45.6177 220.556 45.8608 219.476 46.3468C218.45 46.7789 217.585 47.4 216.883 48.2101C215.425 49.9924 214.696 52.3688 214.696 55.3392V70.6506C214.696 71.4068 214.426 72.0008 213.886 72.4329C213.346 72.811 212.833 73 212.347 73C211.861 73 211.456 72.973 211.131 72.919C210.861 72.811 210.618 72.6759 210.402 72.5139C209.916 72.0819 209.673 71.4608 209.673 70.6506V44.4025C209.673 43.6464 209.916 43.0793 210.402 42.7013C210.942 42.2692 211.591 42.0532 212.347 42.0532ZM229.611 57.6076C229.611 55.6633 229.908 53.692 230.502 51.6937C231.15 49.6954 232.122 47.9401 233.419 46.4278C236.227 43.0253 240.116 41.3241 245.084 41.3241C249.945 41.3241 253.834 43.0253 256.75 46.4278C259.289 49.3983 260.558 53.0979 260.558 57.5266C260.558 61.9013 259.289 65.6008 256.75 68.6253C253.888 71.9738 249.999 73.6481 245.084 73.6481C240.062 73.6481 236.173 71.9738 233.419 68.6253C230.88 65.5468 229.611 61.8743 229.611 57.6076ZM234.958 57.6076C234.958 58.9038 235.147 60.281 235.525 61.7392C235.903 63.1975 236.497 64.5207 237.307 65.7089C239.197 68.4633 241.79 69.8405 245.084 69.8405C248.433 69.8405 251.025 68.4633 252.862 65.7089C254.374 63.3865 255.13 60.6591 255.13 57.5266C255.13 54.4481 254.374 51.7207 252.862 49.3443C251.079 46.5899 248.487 45.2127 245.084 45.2127C241.736 45.2127 239.143 46.5899 237.307 49.3443C235.741 51.6667 234.958 54.4211 234.958 57.6076ZM268.192 30.9544C268.192 30.1443 268.435 29.5232 268.921 29.0911C269.461 28.6591 269.974 28.443 270.46 28.443C270.946 28.443 271.324 28.497 271.594 28.6051C271.864 28.7131 272.107 28.8751 272.323 29.0911C272.864 29.5232 273.134 30.1443 273.134 30.9544V70.4886C273.134 71.2987 272.864 71.9198 272.323 72.3519C271.783 72.784 271.189 73 270.541 73C269.947 73 269.407 72.811 268.921 72.4329C268.435 72.0008 268.192 71.3527 268.192 70.4886V30.9544ZM288.775 31.2785C288.775 32.0346 288.478 32.7097 287.884 33.3038C287.289 33.8439 286.452 34.1139 285.372 34.1139C284.292 34.1139 283.455 33.8439 282.861 33.3038C282.267 32.7097 281.97 32.0346 281.97 31.2785C281.97 30.5224 282.267 29.8473 282.861 29.2532C283.455 28.6591 284.292 28.362 285.372 28.362C286.452 28.362 287.289 28.6591 287.884 29.2532C288.478 29.8473 288.775 30.5224 288.775 31.2785ZM282.942 44.5646C282.942 43.7544 283.185 43.1333 283.671 42.7013C284.211 42.2692 284.724 42.0532 285.21 42.0532C285.696 42.0532 286.074 42.1072 286.344 42.2152C286.614 42.3232 286.857 42.4852 287.073 42.7013C287.614 43.0793 287.884 43.7004 287.884 44.5646V70.4886C287.884 71.2987 287.614 71.9198 287.073 72.3519C286.533 72.784 285.939 73 285.291 73C284.697 73 284.157 72.811 283.671 72.4329C283.185 72.0008 282.942 71.3527 282.942 70.4886V44.5646ZM297.611 44.3215C297.611 43.5654 297.854 42.9983 298.34 42.6203C298.88 42.2422 299.609 42.0532 300.527 42.0532C302.255 42.0532 302.958 43.7544 302.634 47.157C303.876 44.5646 306.252 42.7553 309.763 41.7291C310.843 41.4591 312.031 41.3241 313.327 41.3241C314.623 41.3241 315.92 41.5671 317.216 42.0532C318.566 42.4852 319.754 43.1873 320.78 44.1595C322.995 46.2658 324.102 49.3713 324.102 53.4759V70.6506C324.102 71.4608 323.832 72.0549 323.292 72.4329C322.752 72.811 322.158 73 321.509 73C320.915 73 320.348 72.811 319.808 72.4329C319.322 72.0008 319.079 71.4068 319.079 70.6506V53.0709C319.079 49.2903 317.594 46.8329 314.623 45.6987C313.759 45.3747 312.76 45.2127 311.626 45.2127C310.546 45.2127 309.439 45.4287 308.304 45.8608C307.17 46.2928 306.198 46.8599 305.388 47.562C303.552 49.1823 302.634 51.6667 302.634 55.0152V70.6506C302.634 71.4608 302.364 72.0549 301.823 72.4329C301.283 72.811 300.689 73 300.041 73C299.393 73 298.826 72.811 298.34 72.4329C297.854 72.0008 297.611 71.4068 297.611 70.6506V44.3215ZM348.399 54.1241L351.964 54.2051V51.5316C351.964 47.319 349.587 45.2127 344.834 45.2127C342.62 45.2127 341.027 45.4017 340.055 45.7797C338.921 46.2118 337.84 46.7249 336.814 47.319C335.788 47.8591 335.032 48.1291 334.546 48.1291C334.114 48.1291 333.709 47.9671 333.331 47.643C333.007 47.265 332.845 46.8329 332.845 46.3468C332.845 45.8608 333.061 45.4287 333.493 45.0506C336.085 42.5662 339.92 41.3241 344.997 41.3241C350.667 41.3241 354.313 43.2684 355.933 47.157C356.527 48.5072 356.824 50.1004 356.824 51.9367L356.743 70.8127C356.743 71.5688 356.5 72.1359 356.014 72.5139C355.528 72.838 354.961 73 354.313 73C353.719 73 353.179 72.838 352.693 72.5139C352.207 72.1359 351.964 71.5958 351.964 70.8937V67.9772C350.667 70.7316 348.318 72.5139 344.916 73.3241C343.835 73.5401 342.647 73.6481 341.351 73.6481C340.109 73.6481 338.84 73.4321 337.543 73C336.247 72.6219 335.113 72.0278 334.141 71.2177C332.089 69.5975 331.062 67.3291 331.062 64.4127C331.062 57.5536 336.841 54.1241 348.399 54.1241ZM351.964 57.8506C351.045 57.9046 349.992 57.9316 348.804 57.9316C347.67 57.9316 346.509 57.9586 345.321 58.0127C344.186 58.0667 343.052 58.2017 341.918 58.4177C340.838 58.6338 339.866 58.9578 339.002 59.3899C337.057 60.47 336.085 62.0903 336.085 64.2506C336.085 65.9789 336.76 67.3831 338.11 68.4633C339.191 69.2734 340.757 69.7325 342.809 69.8405C345.294 69.8405 347.4 69.0574 349.128 67.4911C350.91 65.9249 351.856 63.6295 351.964 60.6051V57.8506Z" fill="black"/>
<path d="M253.344 123C252.102 123 251.265 122.46 250.833 121.38C250.671 121.056 250.59 120.705 250.59 120.327V81.1165C250.59 79.8743 251.157 79.0371 252.291 78.6051C252.615 78.497 252.966 78.443 253.344 78.443H263.957C275.785 78.443 283.238 82.6827 286.316 91.162C287.343 93.9705 287.856 97.211 287.856 100.884C287.856 104.502 287.316 107.689 286.235 110.443C285.209 113.197 283.67 115.493 281.618 117.329C277.459 121.11 271.626 123 264.119 123H253.344ZM256.099 118.625H264.686C270.573 118.625 274.975 117.005 277.891 113.765C280.592 110.848 281.942 106.5 281.942 100.722C281.942 94.7806 280.268 90.2709 276.919 87.1924C273.841 84.276 269.277 82.8177 263.228 82.8177H256.099V118.625ZM294.361 107.608C294.361 105.663 294.658 103.692 295.252 101.694C295.9 99.6954 296.872 97.9401 298.169 96.4278C300.977 93.0253 304.866 91.3241 309.834 91.3241C314.695 91.3241 318.584 93.0253 321.5 96.4278C324.039 99.3983 325.308 103.098 325.308 107.527C325.308 111.901 324.039 115.601 321.5 118.625C318.638 121.974 314.749 123.648 309.834 123.648C304.812 123.648 300.923 121.974 298.169 118.625C295.63 115.547 294.361 111.874 294.361 107.608ZM299.708 107.608C299.708 108.904 299.897 110.281 300.275 111.739C300.653 113.197 301.247 114.521 302.057 115.709C303.947 118.463 306.54 119.841 309.834 119.841C313.183 119.841 315.775 118.463 317.612 115.709C319.124 113.386 319.88 110.659 319.88 107.527C319.88 104.448 319.124 101.721 317.612 99.3443C315.829 96.5899 313.237 95.2127 309.834 95.2127C306.486 95.2127 303.893 96.5899 302.057 99.3443C300.491 101.667 299.708 104.421 299.708 107.608ZM335.534 92.0532C337.1 92.0532 337.884 92.8363 337.884 94.4025V97.157C339.234 93.2684 342.069 91.3241 346.39 91.3241C347.2 91.3241 347.821 91.5671 348.253 92.0532C348.685 92.4852 348.901 92.9713 348.901 93.5114C348.901 94.0515 348.685 94.5376 348.253 94.9696C347.875 95.4017 347.119 95.6177 345.985 95.6177C344.851 95.6177 343.743 95.8608 342.663 96.3468C341.637 96.7789 340.773 97.4 340.071 98.2101C338.613 99.9924 337.884 102.369 337.884 105.339V120.651C337.884 121.407 337.614 122.001 337.073 122.433C336.533 122.811 336.02 123 335.534 123C335.048 123 334.643 122.973 334.319 122.919C334.049 122.811 333.806 122.676 333.59 122.514C333.104 122.082 332.861 121.461 332.861 120.651V94.4025C332.861 93.6464 333.104 93.0793 333.59 92.7013C334.13 92.2692 334.778 92.0532 335.534 92.0532ZM369.649 104.124L373.214 104.205V101.532C373.214 97.319 370.837 95.2127 366.084 95.2127C363.87 95.2127 362.277 95.4017 361.305 95.7797C360.171 96.2118 359.09 96.7249 358.064 97.319C357.038 97.8591 356.282 98.1291 355.796 98.1291C355.364 98.1291 354.959 97.9671 354.581 97.643C354.257 97.265 354.095 96.8329 354.095 96.3468C354.095 95.8608 354.311 95.4287 354.743 95.0506C357.335 92.5662 361.17 91.3241 366.247 91.3241C371.917 91.3241 375.563 93.2684 377.183 97.157C377.777 98.5072 378.074 100.1 378.074 101.937L377.993 120.813C377.993 121.569 377.75 122.136 377.264 122.514C376.778 122.838 376.211 123 375.563 123C374.969 123 374.429 122.838 373.943 122.514C373.457 122.136 373.214 121.596 373.214 120.894V117.977C371.917 120.732 369.568 122.514 366.166 123.324C365.085 123.54 363.897 123.648 362.601 123.648C361.359 123.648 360.09 123.432 358.793 123C357.497 122.622 356.363 122.028 355.391 121.218C353.339 119.597 352.312 117.329 352.312 114.413C352.312 107.554 358.091 104.124 369.649 104.124ZM373.214 107.851C372.295 107.905 371.242 107.932 370.054 107.932C368.92 107.932 367.759 107.959 366.571 108.013C365.436 108.067 364.302 108.202 363.168 108.418C362.088 108.634 361.116 108.958 360.252 109.39C358.307 110.47 357.335 112.09 357.335 114.251C357.335 115.979 358.01 117.383 359.36 118.463C360.441 119.273 362.007 119.732 364.059 119.841C366.544 119.841 368.65 119.057 370.378 117.491C372.16 115.925 373.106 113.63 373.214 110.605V107.851ZM387.548 94.3215C387.548 93.5654 387.791 92.9983 388.277 92.6203C388.817 92.2422 389.547 92.0532 390.465 92.0532C392.193 92.0532 392.895 93.7544 392.571 97.157C393.813 94.5646 396.19 92.7553 399.7 91.7291C400.78 91.4591 401.969 91.3241 403.265 91.3241C404.561 91.3241 405.857 91.5671 407.153 92.0532C408.504 92.4852 409.692 93.1873 410.718 94.1595C412.932 96.2658 414.039 99.3713 414.039 103.476V120.651C414.039 121.461 413.769 122.055 413.229 122.433C412.689 122.811 412.095 123 411.447 123C410.853 123 410.286 122.811 409.746 122.433C409.26 122.001 409.017 121.407 409.017 120.651V103.071C409.017 99.2903 407.531 96.8329 404.561 95.6987C403.697 95.3747 402.698 95.2127 401.563 95.2127C400.483 95.2127 399.376 95.4287 398.242 95.8608C397.108 96.2928 396.136 96.8599 395.325 97.562C393.489 99.1823 392.571 101.667 392.571 105.015V120.651C392.571 121.461 392.301 122.055 391.761 122.433C391.221 122.811 390.627 123 389.979 123C389.331 123 388.763 122.811 388.277 122.433C387.791 122.001 387.548 121.407 387.548 120.651V94.3215Z" fill="black"/>
</svg>
